<?xml version="1.0" standalone="no"?>
<!DOCTYPE svg PUBLIC "-//W3C//DTD SVG 20010904//EN"
 "http://www.w3.org/TR/2001/REC-SVG-20010904/DTD/svg10.dtd">
<svg version="1.0" xmlns="http://www.w3.org/2000/svg"
 width="933.000000pt" height="933.000000pt" viewBox="0 0 933.000000 933.000000"
 preserveAspectRatio="xMidYMid meet">
<metadata>
Created by potrace 1.14, written by Peter Selinger 2001-2017
</metadata>
<g transform="translate(0.000000,933.000000) scale(0.100000,-0.100000)"
fill="#000000" stroke="none">
<path d="M4692 8492 c-7 -2 -10 -8 -6 -13 3 -5 1 -9 -5 -9 -14 0 -81 -67 -74
-74 4 -3 2 -6 -4 -6 -15 0 -163 -147 -156 -154 4 -3 2 -6 -4 -6 -14 0 -123
-107 -115 -114 3 -3 0 -6 -6 -6 -6 0 -23 -11 -37 -25 -14 -14 -25 -31 -25 -37
0 -6 -3 -9 -6 -6 -7 8 -114 -101 -114 -115 0 -6 -3 -8 -6 -4 -8 7 -92 -76 -87
-85 2 -5 0 -8 -5 -8 -13 0 -102 -88 -102 -100 0 -6 -3 -9 -7 -7 -11 3 -53 -40
-45 -47 3 -3 0 -6 -5 -6 -15 0 -83 -67 -76 -74 4 -3 2 -6 -4 -6 -14 0 -123
-107 -115 -114 3 -3 0 -6 -6 -6 -14 0 -62 -47 -62 -60 0 -6 -3 -9 -8 -7 -10 3
-52 -40 -45 -47 4 -3 1 -6 -4 -6 -15 0 -83 -67 -76 -74 4 -3 2 -6 -4 -6 -14 0
-123 -107 -115 -114 3 -3 0 -6 -6 -6 -14 0 -62 -48 -62 -62 0 -6 -3 -9 -6 -6
-7 7 -114 -100 -114 -114 0 -5 -3 -7 -7 -5 -10 5 -93 -79 -86 -87 4 -3 1 -6
-4 -6 -14 0 -143 -129 -143 -143 0 -5 -3 -8 -6 -4 -7 7 -50 -35 -46 -45 1 -5
-2 -8 -8 -8 -12 0 -100 -89 -100 -102 0 -5 -3 -7 -7 -5 -10 5 -93 -79 -86 -87
4 -3 2 -6 -4 -6 -15 0 -163 -147 -156 -154 4 -3 2 -6 -4 -6 -14 0 -123 -107
-115 -114 3 -3 0 -6 -6 -6 -14 0 -62 -47 -62 -60 0 -6 -3 -9 -8 -7 -10 3 -52
-40 -45 -47 4 -3 1 -6 -4 -6 -15 0 -83 -67 -76 -74 4 -3 2 -6 -4 -6 -14 0
-123 -107 -115 -114 3 -3 0 -6 -6 -6 -14 0 -62 -48 -62 -62 0 -6 -3 -9 -6 -6
-7 7 -114 -100 -114 -114 0 -5 -3 -7 -7 -5 -10 5 -93 -79 -86 -87 4 -3 2 -6
-4 -6 -13 0 -103 -88 -103 -100 0 -6 -3 -9 -8 -7 -10 3 -52 -40 -44 -47 3 -3
0 -6 -5 -6 -15 0 -83 -67 -76 -74 4 -3 2 -6 -4 -6 -14 0 -123 -107 -115 -114
3 -3 0 -6 -6 -6 -14 0 -62 -48 -62 -62 0 -6 -3 -9 -6 -6 -7 7 -114 -100 -114
-114 0 -5 -3 -7 -7 -5 -10 5 -93 -79 -86 -87 4 -3 2 -6 -4 -6 -14 0 -143 -129
-143 -143 0 -5 -3 -8 -6 -4 -7 7 -50 -35 -47 -45 2 -5 -1 -8 -7 -8 -12 0 -100
-89 -100 -102 0 -5 -3 -7 -7 -5 -10 5 -93 -79 -86 -87 4 -3 2 -6 -4 -6 -5 0
-20 -9 -33 -20 l-23 -20 671 0 672 0 1 -27 c0 -16 1 -430 1 -922 l1 -894 26
30 c14 16 37 44 51 62 14 17 36 43 50 56 14 14 22 25 18 25 -4 0 12 20 35 44
23 24 49 53 57 63 8 10 28 34 43 53 47 58 111 133 130 152 9 10 17 20 17 23 0
3 8 13 18 23 45 47 70 81 65 86 -4 3 1 6 10 6 9 0 17 7 17 15 0 8 4 15 9 15 5
0 13 9 16 21 4 11 9 18 12 16 3 -3 24 18 47 46 28 34 39 55 32 59 -6 4 -7 8
-2 8 5 0 -2 10 -15 23 -35 32 -99 113 -99 124 0 5 -8 18 -17 29 -10 11 -20 26
-22 34 -18 73 -18 79 -1 95 20 18 74 22 113 6 15 -6 27 -7 27 -3 0 4 4 2 8 -3
6 -9 45 -31 77 -43 6 -2 -2 8 -17 22 -15 14 -32 26 -38 26 -6 0 -8 5 -5 10 3
6 3 10 -2 10 -8 0 -53 35 -85 66 -16 16 -15 19 15 63 17 25 30 46 27 46 -2 0
10 14 26 31 37 40 70 87 66 97 -1 4 2 7 6 7 5 0 24 21 42 48 19 26 38 50 43
53 5 3 7 8 6 10 -2 2 6 14 16 27 11 12 19 24 18 27 -1 2 14 20 33 41 l35 37
20 -22 c11 -11 26 -21 34 -21 8 0 15 -4 15 -9 0 -6 8 -10 18 -10 9 0 37 -2 62
-4 47 -4 110 15 110 34 0 5 4 8 9 5 10 -6 112 90 148 139 87 116 158 224 155
232 -1 2 9 14 22 27 12 14 23 31 24 38 1 16 10 157 17 267 2 46 10 90 16 97 6
8 8 14 5 14 -4 0 3 10 16 23 13 12 28 30 33 39 15 24 172 241 188 258 7 8 24
31 37 50 13 19 29 38 35 42 6 5 6 8 0 8 -6 0 -6 3 0 8 16 11 78 92 71 92 -4 0
10 16 29 36 20 20 34 38 31 41 -2 2 3 13 12 22 9 10 26 30 36 45 11 15 28 37
38 48 10 11 15 25 11 31 -3 5 -2 8 3 5 5 -3 18 6 28 20 12 16 14 22 5 18 -8
-5 -2 2 12 15 15 13 53 62 85 109 32 47 61 87 66 88 4 2 8 8 8 13 0 10 123
137 138 141 4 2 6 7 4 11 -1 5 2 6 7 3 5 -4 16 2 23 12 7 11 15 20 18 20 21 3
39 16 33 25 -3 5 -2 7 4 4 5 -4 19 1 29 11 10 9 31 23 47 31 15 8 27 18 27 23
0 5 4 7 8 4 5 -3 21 4 38 15 48 32 212 109 249 116 10 2 22 7 25 11 3 4 16 8
30 10 14 1 27 7 28 12 2 6 7 8 12 5 4 -3 27 2 51 11 24 9 55 18 69 20 13 3 56
12 95 20 38 9 88 18 110 20 21 2 51 6 65 9 133 24 507 25 640 1 14 -2 54 -7
89 -11 36 -3 68 -8 72 -10 4 -3 24 -7 45 -10 22 -2 62 -9 89 -15 28 -6 64 -14
80 -17 44 -8 60 -11 60 -13 0 -1 13 -4 28 -6 19 -3 26 -1 22 6 -3 6 -11 8 -16
5 -5 -4 -9 0 -9 8 0 15 -50 66 -51 51 0 -5 -4 1 -10 14 -5 14 -13 20 -20 16
-7 -4 -9 -3 -6 3 4 6 -1 17 -10 24 -14 12 -16 12 -8 0 5 -10 4 -12 -3 -7 -7 4
-12 11 -12 17 0 15 -52 69 -67 69 -8 0 -11 5 -8 10 3 6 -5 14 -19 20 -14 5
-26 12 -26 15 0 4 6 3 13 -1 8 -5 8 -2 -2 9 -7 9 -20 17 -29 17 -8 0 -12 3 -9
7 10 9 -33 53 -51 53 -9 0 -13 3 -9 6 9 9 -54 74 -71 74 -9 0 -13 3 -9 6 7 8
-17 34 -32 34 -5 0 -13 5 -17 12 -5 7 -3 8 7 3 12 -8 12 -6 0 8 -7 9 -18 14
-24 10 -6 -3 -7 -1 -3 6 4 7 -2 15 -16 20 -13 6 -19 10 -14 10 15 1 -36 51
-52 51 -9 0 -13 3 -9 6 7 8 -17 34 -32 34 -5 0 -13 5 -17 12 -5 7 -2 8 7 3 8
-4 1 6 -15 23 -17 18 -36 32 -43 32 -8 0 -11 5 -8 10 3 6 -5 14 -19 20 -14 5
-26 12 -26 15 0 4 6 3 13 -1 8 -5 8 -2 -2 9 -7 9 -20 17 -29 17 -8 0 -12 3 -9
7 10 9 -33 53 -51 53 -9 0 -13 3 -9 6 9 9 -54 74 -71 74 -9 0 -13 3 -9 6 7 8
-17 34 -32 34 -5 0 -13 5 -17 12 -5 7 -2 8 7 3 8 -4 1 6 -15 23 -17 18 -36 32
-43 32 -8 0 -11 5 -8 10 3 6 -5 14 -19 20 -14 5 -26 12 -26 15 0 4 6 3 13 -1
8 -5 8 -2 -2 9 -7 9 -20 17 -29 17 -8 0 -12 3 -9 7 10 9 -33 53 -51 53 -9 0
-13 3 -9 6 8 8 -18 34 -34 34 -7 0 -10 3 -6 6 8 9 -34 54 -51 54 -9 0 -12 3
-9 7 10 9 -33 53 -51 53 -9 0 -13 3 -9 6 9 9 -54 74 -71 74 -9 0 -13 3 -9 6 7
8 -17 34 -32 34 -5 0 -13 5 -17 12 -5 7 -3 8 7 3 12 -8 12 -6 0 8 -7 9 -17 14
-22 11 -5 -3 -9 1 -9 9 0 17 -44 59 -53 50 -4 -3 -7 1 -7 9 0 9 -8 22 -17 29
-11 10 -14 10 -9 2 4 -7 5 -13 1 -13 -3 0 -10 12 -15 26 -6 14 -14 22 -20 19
-5 -3 -10 0 -10 8 0 7 -14 26 -32 43 -17 16 -27 23 -23 15 5 -9 4 -12 -3 -7
-7 4 -12 12 -12 17 0 15 -26 39 -34 32 -3 -4 -6 0 -6 9 0 18 -44 61 -53 51 -4
-3 -7 0 -7 9 0 17 -45 59 -54 51 -3 -4 -6 -1 -6 6 0 16 -26 42 -34 34 -3 -4
-6 -1 -6 6 0 18 -23 38 -38 33z"/>
<path d="M6624 6826 l1 -391 -90 -1 c-95 -2 -258 -16 -310 -27 -11 -3 -42 -8
-69 -11 -27 -4 -54 -9 -58 -12 -5 -3 -19 -7 -31 -9 -26 -4 -136 -33 -157 -42
-8 -3 -23 -8 -33 -10 -10 -1 -31 -10 -46 -18 -16 -8 -31 -11 -35 -8 -3 4 -6 1
-6 -5 0 -7 -3 -11 -7 -10 -14 4 -83 -26 -83 -35 0 -4 -4 -6 -9 -2 -5 3 -16 -2
-25 -10 -8 -9 -19 -16 -23 -16 -28 -3 -182 -102 -234 -151 -9 -9 -20 -14 -23
-10 -3 3 -6 -3 -6 -13 0 -10 -3 -15 -6 -12 -7 6 -90 -73 -90 -84 1 -3 -14 -18
-32 -33 -17 -16 -30 -32 -26 -37 3 -5 -2 -9 -10 -9 -9 0 -15 -3 -14 -7 2 -5
-10 -25 -26 -46 -16 -21 -25 -42 -20 -45 5 -4 10 -12 11 -18 9 -49 12 -62 22
-86 6 -16 8 -28 5 -28 -4 0 -1 -7 6 -15 7 -8 10 -15 6 -15 -4 0 0 -13 9 -30 9
-16 13 -30 11 -30 -3 0 -1 -12 5 -27 6 -16 13 -38 15 -50 2 -12 9 -35 15 -50
6 -16 13 -45 15 -65 2 -21 6 -57 8 -80 3 -24 6 -45 7 -48 1 -3 1 -8 1 -12 -1
-3 18 -24 42 -46 24 -22 41 -43 38 -46 -3 -3 -1 -6 5 -6 10 0 316 -303 333
-330 5 -8 10 -12 10 -9 0 9 310 -304 310 -314 0 -4 5 -5 10 -2 6 3 10 -1 10
-9 0 -9 7 -16 16 -16 8 0 13 -3 11 -7 -5 -10 30 -43 37 -36 3 4 6 -1 6 -11 0
-9 4 -15 9 -11 5 3 12 -4 16 -15 3 -11 13 -20 21 -20 8 0 14 -4 14 -8 0 -15
37 -52 44 -45 3 3 6 0 6 -8 0 -8 13 -23 29 -34 16 -10 29 -22 28 -25 0 -3 17
-23 38 -45 21 -22 35 -33 31 -25 -7 13 13 -10 72 -79 9 -10 11 -11 6 -2 -5 9
-3 12 4 7 7 -4 12 -14 12 -22 0 -8 4 -13 9 -10 5 3 11 -4 14 -15 3 -12 10 -18
16 -14 6 3 11 3 11 -2 0 -4 16 -25 35 -46 19 -21 35 -35 35 -31 0 4 8 -4 19
-17 30 -39 96 -105 87 -89 -5 8 3 2 18 -15 14 -16 25 -34 26 -38 0 -5 4 -6 8
-3 4 2 17 -9 27 -25 11 -16 26 -29 34 -29 8 0 12 -3 9 -6 -8 -7 35 -51 45 -47
4 2 7 -1 7 -8 0 -16 72 -89 87 -89 7 0 12 -3 10 -7 -1 -5 3 -9 8 -11 6 -2 13
-12 17 -23 4 -11 12 -17 18 -14 5 3 10 0 10 -8 0 -16 56 -68 64 -60 3 4 6 1 6
-6 0 -16 26 -42 34 -34 3 4 6 0 6 -9 0 -18 44 -61 53 -51 4 3 7 0 7 -7 0 -16
86 -100 102 -100 6 0 9 -3 5 -6 -8 -8 16 -33 26 -27 4 2 7 -1 7 -7 0 -6 9 -21
21 -33 11 -12 20 -17 19 -12 -2 6 -2 313 -1 683 l1 672 670 0 c663 0 670 0
653 19 -9 11 -21 17 -26 14 -6 -3 -7 -1 -4 4 4 6 -1 17 -10 24 -14 12 -16 12
-8 0 5 -10 4 -12 -3 -7 -7 4 -12 12 -12 17 0 15 -26 39 -34 32 -3 -4 -6 0 -6
9 0 17 -65 80 -74 71 -3 -4 -6 0 -6 9 0 18 -44 61 -53 51 -4 -3 -7 1 -7 9 0 9
-8 22 -17 29 -11 10 -14 10 -9 2 4 -7 5 -13 1 -13 -3 0 -10 12 -15 26 -6 14
-14 22 -20 19 -5 -3 -10 0 -10 8 0 7 -14 26 -32 43 -17 16 -27 23 -23 15 5 -9
4 -12 -3 -7 -7 4 -12 12 -12 17 0 15 -26 39 -34 32 -3 -4 -6 0 -6 9 0 17 -65
80 -74 71 -3 -4 -6 0 -6 9 0 18 -44 61 -53 51 -4 -3 -7 0 -7 9 0 17 -45 59
-54 51 -3 -4 -6 -1 -6 6 0 16 -26 42 -34 34 -3 -4 -6 0 -6 9 0 18 -44 61 -53
51 -4 -3 -7 1 -7 9 0 9 -8 22 -17 29 -11 10 -14 10 -9 2 4 -7 5 -13 1 -13 -3
0 -10 12 -15 26 -6 14 -14 22 -20 19 -5 -3 -10 0 -10 8 0 7 -14 26 -32 43 -17
16 -27 23 -23 15 5 -9 4 -12 -3 -7 -7 4 -12 12 -12 17 0 15 -26 39 -34 32 -3
-4 -6 0 -6 9 0 18 -44 61 -53 51 -4 -3 -7 0 -7 9 0 8 -12 25 -27 39 -14 13
-23 18 -18 10 5 -9 4 -12 -3 -7 -7 4 -12 12 -12 17 0 15 -26 39 -34 32 -3 -4
-6 0 -6 9 0 17 -65 80 -74 71 -3 -4 -6 0 -6 9 0 18 -44 61 -53 51 -4 -3 -7 0
-7 9 0 17 -45 59 -54 51 -3 -4 -6 -1 -6 6 0 16 -26 42 -34 34 -3 -4 -6 1 -6
11 0 9 -5 14 -10 11 -6 -4 -10 -3 -9 2 1 4 1 317 0 694 l-1 686 -363 0 -364 0
1 -391z"/>
<path d="M4051 4317 c-5 -14 -20 -32 -33 -41 -13 -9 -23 -20 -23 -24 1 -8 -18
-32 -55 -71 -14 -15 -25 -29 -25 -33 0 -4 -14 -23 -32 -42 -17 -20 -28 -36
-25 -36 4 0 1 -4 -7 -9 -8 -5 -15 -15 -17 -23 -1 -7 -15 -37 -33 -65 -17 -29
-28 -53 -26 -53 3 0 -1 -15 -9 -33 -14 -35 -17 -130 -3 -143 4 -4 7 -14 7 -21
0 -8 7 -21 15 -30 8 -8 12 -19 9 -25 -4 -6 -2 -8 3 -5 14 9 42 -25 39 -46 -1
-10 -8 -22 -15 -26 -7 -5 -13 -12 -13 -17 -1 -17 -25 -44 -32 -36 -4 4 -6 3
-5 -3 5 -16 -34 -75 -49 -75 -7 0 -11 -4 -8 -8 3 -5 -15 -35 -39 -68 -25 -32
-45 -63 -45 -67 0 -5 -5 -5 -10 -2 -6 4 -10 3 -9 -2 4 -15 -13 -43 -22 -37 -5
3 -9 2 -8 -3 4 -16 -13 -43 -24 -36 -6 3 -7 1 -3 -5 4 -7 -3 -22 -16 -35 -13
-13 -24 -27 -25 -32 -4 -15 -44 -14 -50 1 -3 8 -11 14 -19 14 -8 0 -14 3 -14
8 0 4 -13 16 -29 27 -16 10 -27 24 -24 30 4 5 3 7 -2 3 -4 -4 -16 2 -26 14
-22 25 -25 12 -4 -16 8 -10 12 -23 9 -27 -3 -5 -2 -9 3 -9 12 0 36 -60 39 -97
3 -45 -25 -64 -86 -57 -25 3 -47 8 -50 12 -3 4 -9 7 -15 7 -25 1 -85 28 -79
36 3 5 2 8 -3 7 -13 -4 -73 23 -73 34 0 5 -4 7 -9 4 -5 -3 -14 1 -21 9 -11 13
-16 12 -39 -6 -14 -11 -26 -26 -26 -32 -1 -7 -7 -11 -14 -9 -7 1 -10 -2 -7 -6
3 -5 -14 -30 -38 -56 -24 -25 -42 -46 -40 -46 3 0 -1 -6 -8 -14 -7 -8 -17 -11
-22 -8 -5 3 -6 1 -3 -5 3 -5 -13 -31 -37 -56 -24 -26 -41 -47 -38 -47 3 0 -3
-8 -14 -19 -10 -10 -32 -36 -49 -57 -16 -21 -45 -54 -62 -73 -18 -19 -33 -39
-33 -44 0 -4 -6 -5 -12 -1 -7 4 -10 4 -6 -1 7 -8 -73 -110 -116 -149 -12 -10
-21 -21 -21 -25 0 -6 -35 -49 -70 -86 -11 -12 -28 -33 -38 -48 -10 -15 -22
-25 -28 -22 -5 4 -9 3 -8 -2 4 -16 -13 -43 -24 -36 -5 3 -7 1 -3 -5 3 -6 -5
-19 -19 -30 -14 -11 -25 -23 -25 -26 0 -4 -10 -17 -22 -30 -13 -13 -36 -41
-53 -62 -16 -21 -44 -53 -62 -71 -18 -18 -29 -33 -26 -33 4 0 -3 -9 -15 -20
-12 -12 -22 -31 -23 -43 -3 -92 -1 -458 3 -462 4 -4 3071 -7 5049 -5 167 0
196 2 196 15 0 8 -5 15 -10 15 -5 0 -98 88 -206 196 -108 108 -211 207 -228
221 -18 14 -30 29 -27 34 3 5 2 8 -3 7 -13 -4 -63 49 -55 58 4 4 2 4 -4 1 -12
-7 -46 28 -36 38 4 4 2 5 -3 3 -12 -4 -161 141 -157 153 1 5 -1 8 -5 7 -11 -4
-79 62 -75 73 1 5 -2 8 -6 7 -12 -4 -148 132 -144 144 1 5 -1 7 -6 4 -4 -2
-56 44 -115 104 -59 60 -107 106 -107 103 0 -3 -12 7 -27 22 -16 15 -28 31
-28 36 0 5 -3 8 -6 7 -11 -5 -39 24 -33 33 3 5 2 8 -3 7 -4 -2 -8 1 -8 6 0 5
-10 13 -23 17 -15 6 -21 13 -16 21 4 7 4 10 -1 6 -8 -8 -91 72 -87 84 1 4 -3
7 -10 6 -6 -2 -17 8 -25 22 -7 14 -13 21 -13 16 0 -5 -7 -3 -15 4 -8 7 -12 17
-8 23 3 6 1 7 -6 3 -7 -4 -15 2 -20 16 -6 13 -10 19 -10 14 -1 -5 -81 71 -178
169 -98 98 -197 193 -220 212 -23 19 -41 40 -40 46 1 6 -3 11 -8 12 -14 0 -91
77 -88 87 2 4 -3 7 -10 5 -6 -1 -11 4 -10 10 2 7 -3 12 -10 10 -6 -1 -11 5 -9
13 2 8 0 12 -4 8 -9 -10 -280 262 -276 276 2 6 0 8 -4 4 -10 -11 -35 12 -27
25 3 5 1 7 -5 3 -6 -3 -19 4 -29 16 -10 13 -41 43 -68 68 -28 25 -49 48 -47
53 1 4 -4 7 -12 7 -7 0 -27 13 -43 29 -17 16 -41 34 -52 41 -12 6 -18 16 -15
22 4 7 3 8 -5 4 -6 -4 -14 0 -17 8 -3 9 -11 16 -16 16 -6 0 -18 8 -27 18 -9
10 -24 21 -34 25 -11 4 -15 12 -11 18 4 7 3 9 -4 5 -6 -3 -15 0 -19 9 -6 9
-31 17 -73 21 -36 3 -70 10 -76 15 -6 5 -13 7 -16 4 -3 -3 -36 -1 -74 5 -38 6
-97 14 -131 17 -60 5 -63 4 -72 -20z m339 -1166 c3 0 5 -101 5 -223 l0 -223
-225 0 -225 0 1 225 c1 124 2 225 3 225 6 1 437 -3 441 -4z m585 0 c6 -1 10
-83 10 -224 l0 -222 -225 0 -225 0 1 225 c1 124 2 225 3 225 99 0 429 -3 436
-4z m-581 -836 l1 -220 -222 -2 c-199 -1 -221 0 -225 15 -3 14 -2 382 1 417 1
7 79 10 223 10 l222 0 0 -220z m587 205 c0 -8 2 -108 2 -221 l2 -206 -222 -1
c-123 0 -223 2 -224 6 -5 38 -3 420 3 427 4 7 85 11 222 11 187 0 216 -2 217
-16z"/>
</g>
</svg>
